<mxfile host="Electron" agent="Mozilla/5.0 (Windows NT 10.0; Win64; x64) AppleWebKit/537.36 (KHTML, like Gecko) draw.io/26.2.2 Chrome/134.0.6998.178 Electron/35.1.2 Safari/537.36" version="26.2.2">
  <diagram id="C5RBs43oDa-KdzZeNtuy" name="Page-1">
    <mxGraphModel dx="1412" dy="833" grid="1" gridSize="10" guides="1" tooltips="1" connect="1" arrows="1" fold="1" page="1" pageScale="1" pageWidth="850" pageHeight="1100" math="0" shadow="0">
      <root>
        <mxCell id="WIyWlLk6GJQsqaUBKTNV-0" />
        <mxCell id="WIyWlLk6GJQsqaUBKTNV-1" parent="WIyWlLk6GJQsqaUBKTNV-0" />
        <mxCell id="pGM0qcHHVE-5nnajG1aP-0" value="10 sector ETF&amp;nbsp;&lt;div&gt;next N day return&lt;/div&gt;" style="shape=cylinder3;whiteSpace=wrap;html=1;boundedLbl=1;backgroundOutline=1;size=15;fontSize=10;labelBackgroundColor=none;" parent="WIyWlLk6GJQsqaUBKTNV-1" vertex="1">
          <mxGeometry x="309" y="30" width="70" height="80" as="geometry" />
        </mxCell>
        <mxCell id="pGM0qcHHVE-5nnajG1aP-1" value="DJ30 stock&amp;nbsp;&lt;div&gt;next N day return&lt;/div&gt;" style="shape=cylinder3;whiteSpace=wrap;html=1;boundedLbl=1;backgroundOutline=1;size=15;fontSize=10;labelBackgroundColor=none;" parent="WIyWlLk6GJQsqaUBKTNV-1" vertex="1">
          <mxGeometry x="432" y="30" width="60" height="80" as="geometry" />
        </mxCell>
        <mxCell id="pGM0qcHHVE-5nnajG1aP-2" value="Fama French 5 factors&lt;div&gt;lagged series&lt;/div&gt;" style="shape=cylinder3;whiteSpace=wrap;html=1;boundedLbl=1;backgroundOutline=1;size=15;fontSize=10;labelBackgroundColor=none;" parent="WIyWlLk6GJQsqaUBKTNV-1" vertex="1">
          <mxGeometry x="560" y="30" width="90" height="80" as="geometry" />
        </mxCell>
        <mxCell id="pGM0qcHHVE-5nnajG1aP-29" value="OR" style="text;html=1;align=center;verticalAlign=middle;whiteSpace=wrap;rounded=0;fontSize=10;labelBackgroundColor=none;" parent="WIyWlLk6GJQsqaUBKTNV-1" vertex="1">
          <mxGeometry x="379" y="60" width="60" height="30" as="geometry" />
        </mxCell>
        <mxCell id="pGM0qcHHVE-5nnajG1aP-30" value="" style="html=1;verticalLabelPosition=bottom;align=center;labelBackgroundColor=none;verticalAlign=top;strokeWidth=2;shadow=0;dashed=0;shape=mxgraph.ios7.icons.add;fontSize=10;" parent="WIyWlLk6GJQsqaUBKTNV-1" vertex="1">
          <mxGeometry x="513" y="60" width="30" height="30" as="geometry" />
        </mxCell>
        <mxCell id="pGM0qcHHVE-5nnajG1aP-94" value="" style="group;fontSize=10;labelBackgroundColor=none;" parent="WIyWlLk6GJQsqaUBKTNV-1" vertex="1" connectable="0">
          <mxGeometry x="200" y="150" width="850" height="2433" as="geometry" />
        </mxCell>
        <mxCell id="pGM0qcHHVE-5nnajG1aP-3" value="Attention Heads" style="whiteSpace=wrap;strokeWidth=2;spacing=1;fontSize=10;labelBackgroundColor=none;" parent="pGM0qcHHVE-5nnajG1aP-94" vertex="1">
          <mxGeometry y="82.84437086092716" width="560" height="145.46688741721854" as="geometry" />
        </mxCell>
        <mxCell id="pGM0qcHHVE-5nnajG1aP-4" value="Input Embeddings" style="whiteSpace=wrap;strokeWidth=2;spacing=1;fontSize=10;labelBackgroundColor=none;" parent="pGM0qcHHVE-5nnajG1aP-94" vertex="1">
          <mxGeometry x="219.5454545454546" width="119.00000000000001" height="35.22516556291391" as="geometry" />
        </mxCell>
        <mxCell id="pGM0qcHHVE-5nnajG1aP-5" value="Q1, K1, V1" style="whiteSpace=wrap;strokeWidth=2;spacing=1;fontSize=10;labelBackgroundColor=none;" parent="pGM0qcHHVE-5nnajG1aP-94" vertex="1">
          <mxGeometry x="31.18181818181819" y="99.15231788079471" width="86.54545454545456" height="35.22516556291391" as="geometry" />
        </mxCell>
        <mxCell id="pGM0qcHHVE-5nnajG1aP-6" value="Q2, K2, V2" style="whiteSpace=wrap;strokeWidth=2;spacing=1;fontSize=10;labelBackgroundColor=none;" parent="pGM0qcHHVE-5nnajG1aP-94" vertex="1">
          <mxGeometry x="168" y="99.15231788079471" width="86.54545454545456" height="35.22516556291391" as="geometry" />
        </mxCell>
        <mxCell id="pGM0qcHHVE-5nnajG1aP-7" value="Q3, K3, V3" style="whiteSpace=wrap;strokeWidth=2;spacing=1;fontSize=10;labelBackgroundColor=none;" parent="pGM0qcHHVE-5nnajG1aP-94" vertex="1">
          <mxGeometry x="304.1818181818182" y="99.15231788079471" width="86.54545454545456" height="35.22516556291391" as="geometry" />
        </mxCell>
        <mxCell id="pGM0qcHHVE-5nnajG1aP-8" value="Q4, K4, V4" style="whiteSpace=wrap;strokeWidth=2;spacing=1;fontSize=10;labelBackgroundColor=none;" parent="pGM0qcHHVE-5nnajG1aP-94" vertex="1">
          <mxGeometry x="440.36363636363643" y="99.15231788079471" width="86.54545454545456" height="35.22516556291391" as="geometry" />
        </mxCell>
        <mxCell id="pGM0qcHHVE-5nnajG1aP-9" value="Head 1 Output" style="whiteSpace=wrap;strokeWidth=2;spacing=1;fontSize=10;labelBackgroundColor=none;" parent="pGM0qcHHVE-5nnajG1aP-94" vertex="1">
          <mxGeometry x="22.272727272727277" y="181.99668874172187" width="104.36363636363637" height="35.22516556291391" as="geometry" />
        </mxCell>
        <mxCell id="pGM0qcHHVE-5nnajG1aP-10" value="Head 2 Output" style="whiteSpace=wrap;strokeWidth=2;spacing=1;fontSize=10;labelBackgroundColor=none;" parent="pGM0qcHHVE-5nnajG1aP-94" vertex="1">
          <mxGeometry x="158.45454545454547" y="181.99668874172187" width="104.36363636363637" height="35.22516556291391" as="geometry" />
        </mxCell>
        <mxCell id="pGM0qcHHVE-5nnajG1aP-11" value="Head 3 Output" style="whiteSpace=wrap;strokeWidth=2;spacing=1;fontSize=10;labelBackgroundColor=none;" parent="pGM0qcHHVE-5nnajG1aP-94" vertex="1">
          <mxGeometry x="295.2727272727273" y="181.99668874172187" width="104.36363636363637" height="35.22516556291391" as="geometry" />
        </mxCell>
        <mxCell id="pGM0qcHHVE-5nnajG1aP-12" value="Head 4 Output" style="whiteSpace=wrap;strokeWidth=2;spacing=1;fontSize=10;labelBackgroundColor=none;" parent="pGM0qcHHVE-5nnajG1aP-94" vertex="1">
          <mxGeometry x="431.4545454545455" y="181.99668874172187" width="104.36363636363637" height="35.22516556291391" as="geometry" />
        </mxCell>
        <mxCell id="pGM0qcHHVE-5nnajG1aP-13" value="Concatenated Output" style="whiteSpace=wrap;strokeWidth=2;spacing=1;fontSize=10;labelBackgroundColor=none;" parent="pGM0qcHHVE-5nnajG1aP-94" vertex="1">
          <mxGeometry x="211.27272727272728" y="281.14900662251654" width="136.18181818181822" height="35.22516556291391" as="geometry" />
        </mxCell>
        <mxCell id="pGM0qcHHVE-5nnajG1aP-15" value="Linear Projection" style="curved=1;startArrow=none;endArrow=block;exitX=0;exitY=0.84;entryX=0.5;entryY=0;rounded=0;spacing=1;fontSize=10;labelBackgroundColor=none;fontColor=default;" parent="pGM0qcHHVE-5nnajG1aP-94" source="pGM0qcHHVE-5nnajG1aP-4" target="pGM0qcHHVE-5nnajG1aP-5" edge="1">
          <mxGeometry relative="1" as="geometry">
            <Array as="points">
              <mxPoint x="74.45454545454547" y="59.360927152317885" />
            </Array>
          </mxGeometry>
        </mxCell>
        <mxCell id="pGM0qcHHVE-5nnajG1aP-16" value="Linear Projection" style="curved=1;startArrow=none;endArrow=block;exitX=0.26;exitY=1;entryX=0.5;entryY=0;rounded=0;spacing=1;fontSize=10;labelBackgroundColor=none;fontColor=default;" parent="pGM0qcHHVE-5nnajG1aP-94" source="pGM0qcHHVE-5nnajG1aP-4" target="pGM0qcHHVE-5nnajG1aP-6" edge="1">
          <mxGeometry relative="1" as="geometry">
            <Array as="points">
              <mxPoint x="211.27272727272728" y="59.360927152317885" />
            </Array>
          </mxGeometry>
        </mxCell>
        <mxCell id="pGM0qcHHVE-5nnajG1aP-17" value="Linear Projection" style="curved=1;startArrow=none;endArrow=block;exitX=0.75;exitY=1;entryX=0.5;entryY=0;rounded=0;spacing=1;fontSize=10;labelBackgroundColor=none;fontColor=default;" parent="pGM0qcHHVE-5nnajG1aP-94" source="pGM0qcHHVE-5nnajG1aP-4" target="pGM0qcHHVE-5nnajG1aP-7" edge="1">
          <mxGeometry relative="1" as="geometry">
            <Array as="points">
              <mxPoint x="347.45454545454555" y="59.360927152317885" />
            </Array>
          </mxGeometry>
        </mxCell>
        <mxCell id="pGM0qcHHVE-5nnajG1aP-18" value="Linear Projection" style="curved=1;startArrow=none;endArrow=block;exitX=1;exitY=0.84;entryX=0.5;entryY=0;rounded=0;spacing=1;fontSize=10;labelBackgroundColor=none;fontColor=default;" parent="pGM0qcHHVE-5nnajG1aP-94" source="pGM0qcHHVE-5nnajG1aP-4" target="pGM0qcHHVE-5nnajG1aP-8" edge="1">
          <mxGeometry relative="1" as="geometry">
            <Array as="points">
              <mxPoint x="483.63636363636374" y="59.360927152317885" />
            </Array>
          </mxGeometry>
        </mxCell>
        <mxCell id="pGM0qcHHVE-5nnajG1aP-19" value="Self-Attention" style="curved=1;startArrow=none;endArrow=block;exitX=0.5;exitY=1;entryX=0.5;entryY=0;rounded=0;spacing=1;fontSize=10;labelBackgroundColor=none;fontColor=default;" parent="pGM0qcHHVE-5nnajG1aP-94" source="pGM0qcHHVE-5nnajG1aP-5" target="pGM0qcHHVE-5nnajG1aP-9" edge="1">
          <mxGeometry relative="1" as="geometry">
            <Array as="points" />
          </mxGeometry>
        </mxCell>
        <mxCell id="pGM0qcHHVE-5nnajG1aP-20" value="Self-Attention" style="curved=1;startArrow=none;endArrow=block;exitX=0.5;exitY=1;entryX=0.5;entryY=0;rounded=0;spacing=1;fontSize=10;labelBackgroundColor=none;fontColor=default;" parent="pGM0qcHHVE-5nnajG1aP-94" source="pGM0qcHHVE-5nnajG1aP-6" target="pGM0qcHHVE-5nnajG1aP-10" edge="1">
          <mxGeometry relative="1" as="geometry">
            <Array as="points" />
          </mxGeometry>
        </mxCell>
        <mxCell id="pGM0qcHHVE-5nnajG1aP-21" value="Self-Attention" style="curved=1;startArrow=none;endArrow=block;exitX=0.5;exitY=1;entryX=0.5;entryY=0;rounded=0;spacing=1;fontSize=10;labelBackgroundColor=none;fontColor=default;" parent="pGM0qcHHVE-5nnajG1aP-94" source="pGM0qcHHVE-5nnajG1aP-7" target="pGM0qcHHVE-5nnajG1aP-11" edge="1">
          <mxGeometry relative="1" as="geometry">
            <Array as="points" />
          </mxGeometry>
        </mxCell>
        <mxCell id="pGM0qcHHVE-5nnajG1aP-22" value="Self-Attention" style="curved=1;startArrow=none;endArrow=block;exitX=0.5;exitY=1;entryX=0.5;entryY=0;rounded=0;spacing=1;fontSize=10;labelBackgroundColor=none;fontColor=default;" parent="pGM0qcHHVE-5nnajG1aP-94" source="pGM0qcHHVE-5nnajG1aP-8" target="pGM0qcHHVE-5nnajG1aP-12" edge="1">
          <mxGeometry relative="1" as="geometry">
            <Array as="points" />
          </mxGeometry>
        </mxCell>
        <mxCell id="pGM0qcHHVE-5nnajG1aP-23" value="Concatenation" style="curved=1;startArrow=none;endArrow=block;exitX=0.5;exitY=1;entryX=0;entryY=0.11;rounded=0;spacing=1;fontSize=10;labelBackgroundColor=none;fontColor=default;" parent="pGM0qcHHVE-5nnajG1aP-94" source="pGM0qcHHVE-5nnajG1aP-9" target="pGM0qcHHVE-5nnajG1aP-13" edge="1">
          <mxGeometry relative="1" as="geometry">
            <Array as="points">
              <mxPoint x="74.45454545454547" y="257.6655629139073" />
            </Array>
          </mxGeometry>
        </mxCell>
        <mxCell id="pGM0qcHHVE-5nnajG1aP-24" value="Concatenation" style="curved=1;startArrow=none;endArrow=block;exitX=0.5;exitY=1;entryX=0.29;entryY=0;rounded=0;spacing=1;fontSize=10;labelBackgroundColor=none;fontColor=default;" parent="pGM0qcHHVE-5nnajG1aP-94" source="pGM0qcHHVE-5nnajG1aP-10" target="pGM0qcHHVE-5nnajG1aP-13" edge="1">
          <mxGeometry relative="1" as="geometry">
            <Array as="points">
              <mxPoint x="211.27272727272728" y="257.6655629139073" />
            </Array>
          </mxGeometry>
        </mxCell>
        <mxCell id="pGM0qcHHVE-5nnajG1aP-25" value="Concatenation" style="curved=1;startArrow=none;endArrow=block;exitX=0.5;exitY=1;entryX=0.71;entryY=0;rounded=0;spacing=1;fontSize=10;labelBackgroundColor=none;fontColor=default;" parent="pGM0qcHHVE-5nnajG1aP-94" source="pGM0qcHHVE-5nnajG1aP-11" target="pGM0qcHHVE-5nnajG1aP-13" edge="1">
          <mxGeometry relative="1" as="geometry">
            <Array as="points">
              <mxPoint x="347.45454545454555" y="257.6655629139073" />
            </Array>
          </mxGeometry>
        </mxCell>
        <mxCell id="pGM0qcHHVE-5nnajG1aP-26" value="Concatenation" style="curved=1;startArrow=none;endArrow=block;exitX=0.5;exitY=1;entryX=1;entryY=0.11;rounded=0;spacing=1;fontSize=10;labelBackgroundColor=none;fontColor=default;" parent="pGM0qcHHVE-5nnajG1aP-94" source="pGM0qcHHVE-5nnajG1aP-12" target="pGM0qcHHVE-5nnajG1aP-13" edge="1">
          <mxGeometry relative="1" as="geometry">
            <Array as="points">
              <mxPoint x="483.63636363636374" y="257.6655629139073" />
            </Array>
          </mxGeometry>
        </mxCell>
        <mxCell id="pGM0qcHHVE-5nnajG1aP-139" value="" style="group;aspect=fixed;fontSize=10;labelBackgroundColor=none;" parent="pGM0qcHHVE-5nnajG1aP-94" vertex="1" connectable="0">
          <mxGeometry x="-130" y="350" width="780" height="940" as="geometry" />
        </mxCell>
        <mxCell id="pGM0qcHHVE-5nnajG1aP-211" value="" style="rounded=1;whiteSpace=wrap;html=1;" parent="pGM0qcHHVE-5nnajG1aP-139" vertex="1">
          <mxGeometry x="362" y="428" width="418" height="512" as="geometry" />
        </mxCell>
        <mxCell id="pGM0qcHHVE-5nnajG1aP-168" value="" style="whiteSpace=wrap;strokeWidth=2;fontSize=10;labelBackgroundColor=none;" parent="pGM0qcHHVE-5nnajG1aP-139" vertex="1">
          <mxGeometry x="-0.00221374045801781" y="427.99999999999994" width="300.86366412213744" height="159.1704857928506" as="geometry" />
        </mxCell>
        <mxCell id="pGM0qcHHVE-5nnajG1aP-117" value="" style="whiteSpace=wrap;strokeWidth=2;fontSize=10;labelBackgroundColor=none;" parent="pGM0qcHHVE-5nnajG1aP-139" vertex="1">
          <mxGeometry y="232.0100824931256" width="305.2330534351146" height="159.1704857928506" as="geometry" />
        </mxCell>
        <mxCell id="pGM0qcHHVE-5nnajG1aP-118" value="" style="whiteSpace=wrap;strokeWidth=2;fontSize=10;labelBackgroundColor=none;" parent="pGM0qcHHVE-5nnajG1aP-139" vertex="1">
          <mxGeometry x="5.617786259541986" width="300.86366412213744" height="159.1704857928506" as="geometry" />
        </mxCell>
        <mxCell id="pGM0qcHHVE-5nnajG1aP-119" value="Trained Multi-Head Attention Model" style="whiteSpace=wrap;strokeWidth=2;fontSize=10;labelBackgroundColor=none;" parent="pGM0qcHHVE-5nnajG1aP-139" vertex="1">
          <mxGeometry x="328.32839694656496" y="15.604949587534371" width="162.29160305343513" height="48.68744271310724" as="geometry" />
        </mxCell>
        <mxCell id="pGM0qcHHVE-5nnajG1aP-120" value="Train Data" style="whiteSpace=wrap;strokeWidth=2;fontSize=10;labelBackgroundColor=none;fontFamily=Helvetica;" parent="pGM0qcHHVE-5nnajG1aP-139" vertex="1">
          <mxGeometry x="180.39335877862598" y="109.85884509624199" width="79.27320610687023" height="33.706691109074235" as="geometry" />
        </mxCell>
        <mxCell id="pGM0qcHHVE-5nnajG1aP-121" value="Input Features" style="whiteSpace=wrap;strokeWidth=2;fontSize=10;labelBackgroundColor=none;" parent="pGM0qcHHVE-5nnajG1aP-139" vertex="1">
          <mxGeometry x="27.464732824427486" y="23.09532538955087" width="102.36854961832064" height="33.706691109074235" as="geometry" />
        </mxCell>
        <mxCell id="pGM0qcHHVE-5nnajG1aP-122" value="Predicted Results" style="whiteSpace=wrap;strokeWidth=2;fontSize=10;labelBackgroundColor=none;" parent="pGM0qcHHVE-5nnajG1aP-139" vertex="1">
          <mxGeometry x="161.04320610687026" y="23.09532538955087" width="114.22832061068705" height="33.706691109074235" as="geometry" />
        </mxCell>
        <mxCell id="pGM0qcHHVE-5nnajG1aP-124" value="Model Output" style="whiteSpace=wrap;strokeWidth=2;fontSize=10;labelBackgroundColor=none;" parent="pGM0qcHHVE-5nnajG1aP-139" vertex="1">
          <mxGeometry x="171.03038167938934" y="247.61503208065994" width="97.99916030534354" height="33.706691109074235" as="geometry" />
        </mxCell>
        <mxCell id="pGM0qcHHVE-5nnajG1aP-146" style="edgeStyle=orthogonalEdgeStyle;rounded=0;orthogonalLoop=1;jettySize=auto;html=1;labelBackgroundColor=none;fontColor=default;fontSize=10;" parent="pGM0qcHHVE-5nnajG1aP-139" source="pGM0qcHHVE-5nnajG1aP-125" target="pGM0qcHHVE-5nnajG1aP-147" edge="1">
          <mxGeometry relative="1" as="geometry" />
        </mxCell>
        <mxCell id="pGM0qcHHVE-5nnajG1aP-125" value="Shapley Value Data" style="whiteSpace=wrap;strokeWidth=2;fontSize=10;labelBackgroundColor=none;" parent="pGM0qcHHVE-5nnajG1aP-139" vertex="1">
          <mxGeometry x="67.41343511450383" y="326.88817598533456" width="162.29160305343513" height="48.68744271310724" as="geometry" />
        </mxCell>
        <mxCell id="pGM0qcHHVE-5nnajG1aP-129" value="Train Phase" style="curved=1;startArrow=none;endArrow=block;exitX=0.03;exitY=1;entryX=0.73;entryY=0;rounded=0;fontSize=10;labelBackgroundColor=none;fontColor=default;" parent="pGM0qcHHVE-5nnajG1aP-139" source="pGM0qcHHVE-5nnajG1aP-119" target="pGM0qcHHVE-5nnajG1aP-120" edge="1">
          <mxGeometry relative="1" as="geometry">
            <Array as="points">
              <mxPoint x="262.7875572519085" y="87.38771769019249" />
            </Array>
          </mxGeometry>
        </mxCell>
        <mxCell id="pGM0qcHHVE-5nnajG1aP-130" value="" style="curved=1;startArrow=none;endArrow=block;exitX=0.7;exitY=1;entryX=0.05;entryY=0;rounded=0;fontSize=10;labelBackgroundColor=none;fontColor=default;" parent="pGM0qcHHVE-5nnajG1aP-139" source="pGM0qcHHVE-5nnajG1aP-121" target="pGM0qcHHVE-5nnajG1aP-120" edge="1">
          <mxGeometry relative="1" as="geometry">
            <Array as="points">
              <mxPoint x="136.69946564885498" y="87.38771769019249" />
            </Array>
          </mxGeometry>
        </mxCell>
        <mxCell id="pGM0qcHHVE-5nnajG1aP-131" value="" style="curved=1;startArrow=none;endArrow=block;exitX=0.5;exitY=1;entryX=0.49;entryY=0;rounded=0;fontSize=10;labelBackgroundColor=none;fontColor=default;" parent="pGM0qcHHVE-5nnajG1aP-139" source="pGM0qcHHVE-5nnajG1aP-122" target="pGM0qcHHVE-5nnajG1aP-120" edge="1">
          <mxGeometry relative="1" as="geometry">
            <Array as="points">
              <mxPoint x="218.46946564885502" y="87.38771769019249" />
            </Array>
          </mxGeometry>
        </mxCell>
        <mxCell id="pGM0qcHHVE-5nnajG1aP-133" value="Generate Predictions" style="curved=1;startArrow=none;endArrow=block;exitX=0.5;exitY=1;entryX=0.5;entryY=0;rounded=0;fontSize=10;labelBackgroundColor=none;fontColor=default;exitDx=0;exitDy=0;" parent="pGM0qcHHVE-5nnajG1aP-139" source="pGM0qcHHVE-5nnajG1aP-120" target="pGM0qcHHVE-5nnajG1aP-124" edge="1">
          <mxGeometry relative="1" as="geometry">
            <Array as="points" />
            <mxPoint x="219.71786259541977" y="238.44362969752524" as="sourcePoint" />
          </mxGeometry>
        </mxCell>
        <mxCell id="pGM0qcHHVE-5nnajG1aP-134" value="Shapley Value Analysis" style="curved=1;startArrow=none;endArrow=block;exitX=0.5;exitY=1;entryX=0.73;entryY=0;rounded=0;fontSize=10;labelBackgroundColor=none;fontColor=default;" parent="pGM0qcHHVE-5nnajG1aP-139" source="pGM0qcHHVE-5nnajG1aP-124" target="pGM0qcHHVE-5nnajG1aP-125" edge="1">
          <mxGeometry relative="1" as="geometry">
            <Array as="points">
              <mxPoint x="219.7178625954199" y="304.41704857928505" />
            </Array>
          </mxGeometry>
        </mxCell>
        <mxCell id="pGM0qcHHVE-5nnajG1aP-147" value="Shap time series" style="shape=cylinder3;whiteSpace=wrap;html=1;boundedLbl=1;backgroundOutline=1;size=15;labelBackgroundColor=none;fontSize=10;" parent="pGM0qcHHVE-5nnajG1aP-139" vertex="1">
          <mxGeometry x="350" y="311.23" width="60" height="80" as="geometry" />
        </mxCell>
        <mxCell id="pGM0qcHHVE-5nnajG1aP-160" style="edgeStyle=orthogonalEdgeStyle;rounded=0;orthogonalLoop=1;jettySize=auto;html=1;entryX=0.25;entryY=0;entryDx=0;entryDy=0;exitX=0.5;exitY=1;exitDx=0;exitDy=0;exitPerimeter=0;fontSize=10;" parent="pGM0qcHHVE-5nnajG1aP-139" source="pGM0qcHHVE-5nnajG1aP-147" target="pGM0qcHHVE-5nnajG1aP-170" edge="1">
          <mxGeometry relative="1" as="geometry">
            <mxPoint x="292.3732824427482" y="444.8486709440881" as="targetPoint" />
          </mxGeometry>
        </mxCell>
        <mxCell id="pGM0qcHHVE-5nnajG1aP-177" style="edgeStyle=orthogonalEdgeStyle;rounded=0;orthogonalLoop=1;jettySize=auto;html=1;entryX=0.5;entryY=0;entryDx=0;entryDy=0;fontSize=10;" parent="pGM0qcHHVE-5nnajG1aP-139" source="pGM0qcHHVE-5nnajG1aP-169" target="pGM0qcHHVE-5nnajG1aP-176" edge="1">
          <mxGeometry relative="1" as="geometry" />
        </mxCell>
        <mxCell id="pGM0qcHHVE-5nnajG1aP-169" value="Train Data" style="whiteSpace=wrap;strokeWidth=2;fontSize=10;labelBackgroundColor=none;fontFamily=Helvetica;" parent="pGM0qcHHVE-5nnajG1aP-139" vertex="1">
          <mxGeometry x="174.77335877862595" y="537.8588450962419" width="79.27320610687023" height="33.706691109074235" as="geometry" />
        </mxCell>
        <mxCell id="pGM0qcHHVE-5nnajG1aP-170" value="Input Feature 2: Feature+ Shap" style="whiteSpace=wrap;strokeWidth=2;fontSize=10;labelBackgroundColor=none;" parent="pGM0qcHHVE-5nnajG1aP-139" vertex="1">
          <mxGeometry x="21.844732824427496" y="451.09532538955085" width="102.36854961832064" height="33.706691109074235" as="geometry" />
        </mxCell>
        <mxCell id="pGM0qcHHVE-5nnajG1aP-171" value="Predicted Results" style="whiteSpace=wrap;strokeWidth=2;fontSize=10;labelBackgroundColor=none;" parent="pGM0qcHHVE-5nnajG1aP-139" vertex="1">
          <mxGeometry x="155.42320610687028" y="451.09532538955085" width="114.22832061068705" height="33.706691109074235" as="geometry" />
        </mxCell>
        <mxCell id="pGM0qcHHVE-5nnajG1aP-173" value="" style="curved=1;startArrow=none;endArrow=block;exitX=0.7;exitY=1;entryX=0.05;entryY=0;rounded=0;fontSize=10;labelBackgroundColor=none;fontColor=default;" parent="pGM0qcHHVE-5nnajG1aP-139" source="pGM0qcHHVE-5nnajG1aP-170" target="pGM0qcHHVE-5nnajG1aP-169" edge="1">
          <mxGeometry relative="1" as="geometry">
            <Array as="points">
              <mxPoint x="131.07946564885498" y="515.3877176901925" />
            </Array>
          </mxGeometry>
        </mxCell>
        <mxCell id="pGM0qcHHVE-5nnajG1aP-174" value="" style="curved=1;startArrow=none;endArrow=block;exitX=0.5;exitY=1;entryX=0.49;entryY=0;rounded=0;fontSize=10;labelBackgroundColor=none;fontColor=default;" parent="pGM0qcHHVE-5nnajG1aP-139" source="pGM0qcHHVE-5nnajG1aP-171" target="pGM0qcHHVE-5nnajG1aP-169" edge="1">
          <mxGeometry relative="1" as="geometry">
            <Array as="points">
              <mxPoint x="212.84946564885502" y="515.3877176901925" />
            </Array>
          </mxGeometry>
        </mxCell>
        <mxCell id="pGM0qcHHVE-5nnajG1aP-176" value="Model binary predic probability" style="whiteSpace=wrap;strokeWidth=2;fontSize=10;labelBackgroundColor=none;" parent="pGM0qcHHVE-5nnajG1aP-139" vertex="1">
          <mxGeometry x="165.04038167938933" y="619.9950320806599" width="97.99916030534354" height="33.706691109074235" as="geometry" />
        </mxCell>
        <mxCell id="pGM0qcHHVE-5nnajG1aP-208" value="" style="shape=image;verticalLabelPosition=bottom;labelBackgroundColor=default;verticalAlign=top;aspect=fixed;imageAspect=0;image=data:image/png,iVBORw0KGgoAAAANSUhEUgAAAU4AAAAoCAIAAAAe64TNAAAMVklEQVR4Ae1bXWsbRxfuX5l/MbcLoSD2RggKNizEajGOL6wgVNyAjOmFLFqQjGoknBjHQSVrTJe6iCrBRpWltusYC3+toihdO6plDIsW5ke8fn3oYbKrlWRZMok8czWaOTNzzjPzzJwzs/qCiCQQEAjcAwS+uAc2ChMFAgIBIqguFoFA4F4gIKh+L6ZZGCkQEFQXa0AgcC8QEFS/F9MsjBQICKqLNSAQuBcICKrfi2kWRgoEBNXFGhAI3AsERo3qlNLt7e2vvvrq85q99fX1cDg8JJ0lSfr777+H1Lno9pYIlEolSuktO+ml+edHdUmSFhYWIpGIJEluC3VdTyQS7vI7KHn06NHCwoLP5+sw1sOHD7FWkqTx8XH4SSk9ODgIBAJY20dmenra3YpSWqvVZmZm3FWi5FNAIBwOl8vlO9DkM6N6KpUyDENV1Wq12mq14vE4j1EqldJ1nS+5m3wgEKjVarlcLp1On56eplIpr3EZY61W6/w62bbNn+TRaLRer3s19CqnlCqKsrq6enp62tZ27Tp5Ne+x/Msvv6xUKqFQqEf5ERajlGYymT/++GOANubz+Y2NjQF22Larz4nqiqI0m008zCuVim3bwWAQDWs0GrOzs/jzzjKFQqFYLMJwwWDQoRWvhm3bwPOdnR080lHg7du3HbYJFOMziqJsb28nk8mzszM31WVZbrVasizzTfrLS5Kkquq7d+8c22t/vX2OrSRJev78+T///LO4uDhY/YPBoGVZA5mmDop9TlRPpVKMMfR2VlZWGGPZbBbMi8VizWazg6lDqqKU2ra9srKC/VuW5bVJm6aJYu5MNpvd3993l/dSYpqmm+rZbLZSqfTSvEcZSiku97uJMHtUbKhikiTlcrlqtTq8bc4wjOXl5aFa0Q/VJUlaXV198uQJahaNRmHiM5nM5OQklg82I8vy7u4uwr20tMRTPZ/P4y4A48JBBHpGo1FN09pGs7dUMhwOM8b407gt62AUoLrf70ffhB89HA7bts2X9J5vO2ilUnFsOtPT06qqjo+PS5KUyWRUVW2rSedxwYk9Ozt7/vx5V8JHIpH0x6m/FTI9Pb29vV0qlaLRKKg3MTEBHUej0WQymclk3MrA3rSwsEAICYVCmqbx67azmYQQn8+3tbVlGEbvwQvcJX1scdqtmGPozc1Nx+p1CNz+542pDhdIoVCIMQaXPbOzs4yxqampr7/+mjHmPlvcWvp8PqVj8vv97laOkmKxyLvKlUpF0zReplwuRyIRxtjJyUkmk3n06FGj0Rj4pR34Gg6qe0XdpmkeHR2VSqVqtbqzs+NYAZRSRJU3pJd8W6o3m01eMVmWdV1/+fJlo9EwDCMSiSwuLl5eXvbtOi4uLp6dnamq6jAEFKaUHh8fs4+TZVnr6+u9WMTLbGxs7O/v+3w+SZJwT5+YmMjlcoyxi4uLZ8+eMcYc+xohJJfLzc3NNZtNwzA0TVMUxTAMtxg/FuTHx8d3dnb29vZudDyEw+HLy8uPLf6/el2vRZeWljp7fG4Nb1pyY6qrqjo/Px+PxxljiqIQQjRNsywLBt7c3OyF6o8fP3Zse46f33//fWdL4CxF750QYpomv6wVRSkUClNTU4yxpaUl6E3X9cE6tISQtlT3mrY///wTWdFsNguFgsNMh4OAtZIkjY2N4U93pi3VHRtHNpuNxWIbGxuWZeFtP2OMjz7cPXcowUMPe+OF8/k8IC/Lcq1W46vgNhF2e991wp0f8UH5WCx2xWe8lIGICd1dxlg+n6eUaprmVgMCItu2Nzc3oUNN03oJ9Obn53t0W1BPeOyAK5jl5WXHhuL3+9FGtycFqwi7GkbmxlSH87ZYLL59+xYUqlQqSO8rsiH9ZmZm/v3332EoHQgELi8vHQvUQXVJknw+H8TzuHrq1wlUqtfr6ArySr548aLknZ4+fcoL35TqfFtd123bRt2gyovqhmGA68T3wOd7obrf76eUViqVN2/eQFvYCnFRemHCDwT5hw8f6rr+119/8c+HDjF0zVKplGNTk2V5bW2NMfby5cvJycnHjx/v7Ow0Go10uo2vWygUriI1vnPTNA3DgJIOWxWl1O/3R6NRxhg+dpTLZYySEonEwcEB37MjH4/H371712OYQynFp1Zd12OxGN/b3Nzc4eGhYRjpdNq9JX2KVCeEUEqvjnGkNH8ppaoq+iqU0g7rgEfhRnnYOyFi58F1UB36LBQKuCZkWWaM4Zr75ptvbjSul3DvsXo0Gt3e3kZu67ruOHUJIV5Uhws2bOtWpheqQyt+7mArxEXZCybT09N7e3ttXxDcWkFJsVh07MuEkEQiwZ+u5XI5n8+37QGA4qvM6wQlXoihfDabRa+TEALOPNTynzagvDvz5MmTo6OjXC6HTHbL8CVAEHdYVK/X3ThAw0+U6jMzM7hN8nlCCB7v4KF5Lc1nz56dd0ylUonHjs+Xy+X5+XkoWbpOkL/ymXH3Qflms4meG6AJr3FjY2M9Tht25ZUBf5If2rZtx60BtIUli7zyOtXb+hpeo2O5F9VxOJB0HHG6rjcaDajqikkoFDo6Otra2ropdJZluY3CkBtGbzabXtcoEJDza6nZbOJK60p13ouB5QrOvyRJEIEihp0zve9xbR+D4KTxGjGVSvEbX2dN+qu9sQNPCOHpDfyBk/xqOnHFb21t/f777+gZ9qecuxWc0qX/Ur1eR8dM13VkNTRUFIUxpqoqeCL1eh0YuL6+/tNPP3ndnLkH7VpSvE4gFgwG+cCyXC63Wi2Y4LW1tRcvXoAYpdQdq4M77bUaOqvRluqmaeI9BTTPZrOoXjgcbrVaAGBnTB48eFCtVnv0Yx16QqTNExUEDMOo1+swk7u7u4wx9zEIkhCvoSHRaJT/+qgr1S3Lwq8e9OtECJFlOZfL7e3tee0vDivwJ0Qur169whJ3plAoYIiEtW35j7UbGxvofmLhYDP9UJ0QUi6Xa7WaqqqwZR4fH6uqir6xoigzMzP7+/v4MDYQpROJBHMlXB/uN2TwTk9OTlZXV6vVKp60sVhseXkZp//2ugUCgYuLC1VVI5HI1f1T9r+nfgCKv+I+ODiAj+pqtdrBwYGDAIlEwus+r4OS5+fnFxcXjDH4Pufw8BCFC4WCwyuuVCqmaZ6cnKiq+v79e/SPBo4J6qBpmtsoxxG3srLSeeednJz88OHD7u5uqVT68OEDqP3DDz+A4ZZlnZ+f44h8BrwYwzB++eWXN2/e4KvHd999J8tyo9HA2z6+1S3zpmniYsOu8vk8EgSe8bAK1om7CS9w+3yfVAdd8U7Y7/djHnSCL9tur1/vPcBnash8QggG6oqiOEhlGIbbpex9LLckpRRed7s6t6FQKJ1Ot42KC4XCYOc7Ho+jfw46Q6De9j5/4JjAiHA/6kCs90Cdb+heZnxt2zwG6mNjY45771gsNvDnGNABrj8d+vCBOqXU4fBaloWXXI6Gg/rZP9U7a6Cqai6XW11dffDgQWfJAdbqus5fezSbTceZBmMFg0HYzpPJ5ABHv2VXlFL+/L9lb9jcNE3c1OCIw58oQwjpikkymUx7J/eVMt+5O+844joE6u62NyqpXKe2TYrF4vLy8s8//9y2dnJy0tvcdNfHYEef4MVMTU1B+ebmJk/seDze91eSjoE6/BwW1XO53OvXr9fW1jqMPfCqQCBwenpKKQ0EAnCXo+v63NycY6DZ2dlqtfrbb785jnqH2B3/vLpo4D3/QY0eDoePj48JId9+++3x9QctqqpOTEw4+u+KyaCoLstyqVS6vLys1+vJZDIWi0Ggvre3198lhcMQ/EkpVVXVtm3DMH788Ucsx8z+/v6vv/7qFasPkOpPnz49PDxkjJWu0/v37/GhGm+RhhFHoKWQGRbV3dGIY+Ah/YS/BMLlKn6h4R6rq5vtbjLUkvn5+eF9F5lKpTRN4z/haLvHfWqY3BJw/isdfOF39PkpmJzP5/lPvxwaDvDnEKk+QC1v1NXVJ1xtl/KNOrljYa+1OCg1ht3/oPS8h/3c2dSMINXv4XIRJgsEuiIgqN4VIiEgEBgFBATVR2EWhQ0Cga4ICKp3hUgICARGAQFB9VGYRWGDQKArAoLqXSESAgKBUUBAUH0UZlHYIBDoioCgeleIhIBAYBQQEFQfhVkUNggEuiIgqN4VIiEgEBgFBATVR2EWhQ0Cga4ICKp3hUgICARGAQFB9VGYRWGDQKArAv8DHcmu45Qmm3MAAAAASUVORK5CYII=;" parent="pGM0qcHHVE-5nnajG1aP-139" vertex="1">
          <mxGeometry x="400" y="510" width="334" height="40" as="geometry" />
        </mxCell>
        <mxCell id="pGM0qcHHVE-5nnajG1aP-209" value="" style="shape=image;verticalLabelPosition=bottom;labelBackgroundColor=default;verticalAlign=top;aspect=fixed;imageAspect=0;image=data:image/png,iVBORw0KGgoAAAANSUhEUgAAASsAAACECAIAAABH+5psAAAZ70lEQVR4Ae1db2siSRq/r1Lfot8Kx4H0m9AwYLiGHXcIJi+c0LjkAoZhDhLJDjq4WUMmntklcmZlei9zznq78Rxnmr1eg5JM1knWw/wZFaFXoT7EhTxQV9tt2taY2JWtfiHV1fXneX5Vv66qp55q/4D4xRHgCEwOgT9MrmpeM0eAI4A4A3kn4AhMEgHOwEmiz+vmCHAG8j7AEZgkApyBk0Sf180R4AzkfYAjMEkEOAMniT6vmyPAGcj7AEdgkghwBk4SfV43R4AzkPcBjsAkEeAMnCT6vG6OAGcg7wMcgUkiwBk4SfR53RwBzkDeBzgCk0SAM3CS6PO6OQKcgbwPcAQmiQBn4CTR/x3WPTc39zvU2kZlzkAbcPijsSHg8/lWVlZ0XccYj63Qe1EQZ+C9aEbXK5HL5VKpVKFQcM7AaDS6urrqes1uKiBn4E0R5PmdI6CqqnMGxq8u54UzmpIzkNGGY1Ls22Dgs2fPMpmMx+OZm5tLpVKLi4tsQcMZyFZ7sS3t2BkYDodzuVyhUDg/P9d1PR6P//rrr7IsMwQTZyBDjcW8qGNnYKlUEkWxXC43Gg2EkKZpnU5HEASGkHIdA2VZDofDDCHIRXWOgD0Dv/7663fU9fPVRUW8SyQSprqmpqYQQq1WS1VVeMQW/RBy39cKd3Z2zs7OTEDz2/uBgD0DTTo6tMQEg0GMMbtvbdeNgclkslgsmhqD394PBG6Dgclkstfr9R36fD6f+9eErmOgpmlra2ukwwGIgK/X6/X5fAghK7Iej0eWZY/HQzLe+0AwGNR1vW/Pc63ut8FATdOq1apVZVVVI5HIixcvtre3rU/dE+M6BrZaLXhvCYJwcHAQiURmZ2dPTk4QQqqq7u/vl8vlUChUKBS++uorwFFRFF3XZVk+OTnJ5XLuAde5JB6P5z//+Y/z9AihbDZ73bt/YDkPHjz417/+NTDZGBMUCoVms9nr9TDG7Xa72WwGAgH78h3OQhuNRiaTsRZ1cXGxvr4eiURmZmasT90T4y4GBgIBsgjUNI0g22g0Njc3g8Fgo9GAGf/u7m42m0UICYLQ6XT8fj9CCOzR7gHXoSSCIJycnASDQYfpIVm1Wi2VSk6yTE1NxWIxmD6Q9PF4nFgvSKSrAg4ZCMYYq+R/+9vf2u12r9dz+UTUXQwki0BBEDDGgJ0oihAWRbHVagHWx8fHCwsLCKFoNAqWaLCJiaJobQyXx6hX17BC9no9QMA+Yy6XOzo6SiQS2tVFJ65Wq9FolI5xVfjhw4eSJI0m0sHBARhOy+XysK+20WocOZe7GFgsFtfW1tLpNLAOtEomk5qmIYTi8biu6wghv99/cXHh9/tjsVg0GoXIcDhMqDgyHHefURTFbrc77IsjHA4fHx8PlHZ5edkwDLJWvMxCL4oikQiLiA3UGiFULBZfvHiRSqXueLLtRDZTGncxcG9vL5/Pf/nll7DOefnyZSaTKRaL0Ify+XwymUQILSwsfPjw4dWrV8LVVa1Ws9nsf//733w+b1LP/bfb29t9DQn2kmez2Y2NDfs0MC2nCy8Wi/V6nc5lGIbNQNr3JNH09DShNF2U28JTU1NMWObujoHT09OpVIo0qiAIsKITBGFra4vMN7xeL2lLr9dLg0iHSTISGPsicH5+PpFIpFIphBB4P8ViMUEQPB5PLBbL5XImF8TFxUXYPl5fXyd9dGlpKRwOy7K8srKCEHr8+LF8dRHzALw+iMoIIY/HY/JvDIfDUOD6+jpkXFpacjJsnp2dwQQByreaIsvlMiynaQFI+O3bt/F4nNwihBRFOTg4INrRj3h4NATuiIF+v79cLq+srBDz3cbGRq/XQwitrq5ijEe2CvR6vUAg8Nlnn52cnFzXMwRBgH5v82uFb35+vlKpYIyLxWIkEpFludFo6LperVZnZ2eXlpYwxsvLy5AxHo9jjJ8+ferxeHRdr9frIMzS0lIul8MY12o1cJvqdru5XG5+fh4ytlotupeDBfjx48cYY1jALCwsYIwDgcCnn36KMaYZZZXZFGNKDwykjZC7u7v2BdLvNUVRarXadSCbqua3DhG4IwaWSiVJkjKZjGEYIJmu69ApEULlcnlkBi4uLiYSiZWVFZueIYpiYtDVNzvwCqa+CKHd3V2MMRmuG40GmfcGg8FmswmcAS8N2siRz+fBX1HXdUVR6LYhTIPITCbz5MmTSCRCDFGqqhLQBhKGLhkh1JeBtGVCVdWBS0FN0+LxOKefCdtx3d4RA8FkfHx8TAzotC+fqqpkMBmXYmMpBxhIuqyqqmSzBCEEQyJd0aNHjxKJxP7+PsbYNLLV6/V2u007G0BGEwMBqFKpRAwt1WqVDFOXZdKmFLrqvuGxMBBekfV6nV4F9K0OOI/Zua7T4i7j74iBYMAk07ZAIED78hFby11q7qQuKwPpEYNm4PT09Onp6cHBQSgUUhTFxECE0F//+leMMRlOSe0mBsIO5+WgR5jW6/VIrkwmQ14HwWDw48ePpJy+gYHrQCdjIIx+xWKRfqf0rY5HjoDA3TEQejNM9uiwIAiw2QDSR6PRg4ODETSxyfLgwYOm7XV2dvbgwQNrCc4ZeHR0REYtmIXG4/GlpSUoU5Kko6Ojra2tXq9nnYWaxn/IDsnoMNg2iZCCIHzyySfktm+AnurDKpR+g4CbEW0stRaiKApZYMN01JpmIjE+ny8UCjkxR01EPOeVToaBtFEumUzSXdDj8UxPTztX4FZTOmdgq9Uql8sgDKziyO6lx+Op1WqfffYZUIgYaSBxo9EwTU1p1tECXJqOycAItiWydoVNRbKuJphEIhHTfiBxM4I0mqbZ+MHT9IP07hkJP//8c4wxQYCozFzg7hgIvlflcjmXy+3t7Z2enmqalsvldnZ2CGrgYE1uJxtIp9OdTgdj3Ol00un04eFht9vFGDebzdXV1WaziTHudrvNZhMhdOm/2u129/b2VFV9/fq1pmntdjubzR4eHoIzJKhpGAbG2DCMw8ND0K5YLBJzDtFX07STk5NMJlOtVsvl8tHREeyLkgR7e3vfffcd2UgQRbHT6YBtmaSBgKZplUpldnb23//+t3UjoV6v28wtf/rpJ2sX39vb+/TTT0213P1tOBy2vnHuXoyb13h3DARZp64uCPt8PtqpTxTFXC63v79PWxFvruFdliDLMtmfdGK3AOpeXFxYhSQHQRBCU1NTtFenLMvBYLBSqUQiETojPZmn48E+9OjRIzoSISTLMtkcMj1y/202m93d3SVyer1eAj6ZIEAk3RDwiLQRyT7BwF0z0EbVv/zlL6IogruZTbL794i4mztXTZZl4iILuQRBICZTh+VkMhlGj5IghKrVKlm8bG9v5/P5SwZWKpVgMLizs5NKpT58+JBMJj///POjoyMARJIk2MuFeYFDlG47mYsYiBBaXl62NwzcNhwTKV9RFNJLHAoA5EmlUn/84x8hi6qqQ50TlyTp/PzcOsl0KMB1yQKBgK3N6zcPyfmy60qziSejdzQaJTYw8HGPxWKqqsLcXlEU4ohXq9Vg1jCaK7yNMDd55C4GlkqljY2NdDp9E5VYzDvsWaFcLvf999/TPZiezw9EQBCEcrlsssoOzOUwAXwY+7rlpcfjCYVCe3t7vV6PMMdhySQZvQi8NIARA9Xl6xvC1WoV3kdknA8EAoS05CkpcIIBdzGwUqn84x//YHcdeJOGHIpCCKGbLGYEQbhJdns1JUkCsxBxHuqbfmZmptPp2PiF980Fkdvb27u7u/CmrlarwHZJktrttiiKgiBcWsVgeIdTbOl0OhAIwE6MJEnkqU0Vd/bIXQy8Yce6M9R4RfYIhMNhjLFp38WaBfzdrfEDY7766qs3b96AeRm+kACuSOC2Hg6HyVrm4uLim2++gdH+7du3qqq+f/+ePB1Y0R0kcB0D70BnXsUdIABbvrS5sm+lw478pBB6DBcEwVQOsX/CWRY4cQKjoqsWgW78WiGBmAeYRkAQhHq9jjEedk3h5HDWCMjU6/XLzymA86D99HiEwm+ShY+BN0GP57VDQJKkXq/X6XSc9/jxHs6ihZubm0skErFYjAyP9NMJhjkDJwj+/a8avOqIv95Ahcd7OGtgdW5IwBnohla4zzJomoYxpjdObLSF5dy4DmfZVOSeR5yB7mmL+ymJx+O5uLgYaiLq5HDWvQGLM/DeNKVLFdE0baitf/poCB02Hc5ycjzSpYj8VizOwN/iwe/GikA+n7/OOea6emjWXXc4C84xDzweeV0VrornDHRVc9wrYZzsvJn28UD/gYezyOmHe4AXZ+A9aEQ3qkAOKNsI5/f7rzsfbHM463IANB2PtKnC/Y84A93fRuxJaD1cb9XB4/HU63Vywsia4LqY645HXpfe5fGcgS5vIPbEkyTp9PTUxvjp9Xq3trba7Tb5CuOwSlqPRw5bgnvScwa6py3ugyTgjGYYxm8OAlI38M0OfHVdNwUdCIT1eOTALK5NwBno2qZhUjCwkdh8m5x+NLKDmPV4JJNgXQnNGchu2/2uJafPRjANBGcg083HhWceAc5A5puQK8A0ApyBTDcfF555BDgDmW9CrgDTCHAGMt18XHjmEeAMZL4JuQJMI8AZyHTzceGZR4AzkPkm5AowjQBnINPNx4VnHgHOQOabkCvANAKcgUw3HxeeeQQ4A5lvQq4A0whwBjLdfPdW+GfPnmUyGY/HMzc3l0qlFhcX76uqnIH3tWUZ1gv+0aVQKJyfn+u6Ho/Hf/31V1mWGVbpetE5A6/Hhj+ZEAKlUkkUxXK5DP83pmlap9MZ+5+NTkg5c7WcgWZE+P3EEYAPqLVaLVVVQZj7Sj8X/XfS1NTU7Ozsw4cPJ978XAA3IABfDR3qf7ndIPYIMrhlDFxaWmq1WiMgLkkS/Dn4CMrzLK5FIJlMkj+dNgnp9XplWR75Cxem0iZ+6xYGiqI42peznHwWduIo31wAXdeH+vb7zWucbAmapvX9p1tFUfL5/OPHj53/H9NkFRlY+8QY6PF4ZFkmX/tYXl4ul8uPHj0KhUK00PDCg2TkS8k+n29qagpu379/H4vFSDl0XteG164u5+IFAgGM8bCffyfl7+zsMMfeRqORyWSICiSQy+XevHkTCoWePXtGIpkOTIaBkiRpmibLcq1WA/jy+fzp6WkoFHr58uX29jZEbm9v5/P5S6JWKpVgMJjNZlOp1Pn5eSwWa7Vaf/7zn1+8eNHr9RKJBPyB+N23hCAIKysrQ9kJ4vG4pmlDiZpMJg3DcFKLIAihUCgcDtOTNPhbTJsPeA4lzN0k7vs1e4SQoii//PJLr9dz+HdodyPtTWqZDANfvHhRrVZDodD6+jpIX6vVnjx5ghDKZrNgAYtGo8fHx/AUpprr6+sQuDTYAEvD4XDfucpNEBkqbzabxRhns1mHuURRvLi4EEXRYXpIpmlaLpcbmGVmZubjx4+ZTCaVSn38+JEe98LhcL1eH1iCyxOkUimYfK6trREzqctlHijeZBgoSVKtVut2u3t7ewghehFYq9XAHnOJNRkML2kG4Wq1SltrJr4IfPjw4bt37+i+bo947uqyT2N92mq1/H6/Nd4UU6vVyMwtEomY9tCOj49HnseaKprUbTQaff36dSKR+PHHH9ka0m0QmwADnz59enp6CjMKXdcRQsvLyzCUwdfIRVHc3NysVqvQYyRJarfboigKgnBJWnoyBoQMX102SrrnkWEY9BvEiWCBQKBSqQxMaTLfy7KMMY5GoyTj9va2TTkzMzM0sCSX2/4hzOPxXDdBJTKzFRg/A1dWVtbX10lzzs3NTU9PI4Tm5ubW1tYQQsFg8N27d4lEolgswuixu7sLQ5zf76/Vaq9evRIEQVEUXdcTicT+/j4s86xzznK5vLOz8/r16zGCvrS0lEgk1tbWYI2Xy+VWVlYQQl6vN5VKqao6NzcH1YmimLi64O9H5ufnE4lEKpVCCIFfVSwWIzhAZK/XM4m6uLiYSqXIsm16ehrKn56e3traQgg9fPhwfn7elMt6u7a2hjEOBoPkEcaYnqopimKtnSRWFOXnn3+mpUUIFYtF1odNoqBrA2Nm4N7eXiQSqVarpO0vLi5gmXRycoIxBiAEQfD5fAQU0v+go5N4QRBMLzw6JSQzJSB5oSj6G+nWcN+8S0tL9Xq91Wr9+OOPoVBodnbWMIxisajruizLm5ubvV4P5oSiKKqqSjr6/Px8pVLBGBeLxUgkIstyo9Gg/xohmUyCmxURcnt7e2tr6/vvv4e5wKXMlUoF7DRv3741MYrk6hsASUwMpE0+giDYF2j6wyNN0zj9+kI93shxMtDv9//www+CIJD/AYepEQwRiqIQBo5Xh+tKg0EJhqm+v0+fPu2bF3ozmS6Wy+VWq0XGB4xxMpkkGQ3DIK8b+M9X8nR3d5emnKqqhGnwL7BgVzg+PgaiCoJwOUzBdECSJMMwaEaRGvsG+jKQrg4hNHBLQ1GUWq0mCAKnX1+QbyNynAz0XF2RSARjDKOEybOB7D3chiZjLBN6MylQ13V6/5cMepCg0WiYGEhoo6qqPQO9Xq/f78cYg1tPOBymh6mh4BoLA2Fx3u12Nzc3ifrXBfC9vq7Teuzx42QgCFcqlUjXoT0b/H4/6akIoXq9TgaZsWt1wwKtDKQHk3ExEITMZDLEGSibzbZaLYgXBIGewWqaBivM61QbuA50MgYihDRNU1X14OCAjPnX1cjjx4LA+BnYaDQuLSsgHB3OZDILCwtE6EePHpHwLQU2Nzebtte7d+/6Vn17DCTvJlIvPcDS4UgksrGxQZJ98skn9pSgJ/wIob5uNBhj+7ceHMaDkRCmo0QAHrglBG6RgbDLB+MeLC2IDj6fz81+ZLfEwHg8fnZ2RkCAAM26RqNBBltN0wjlpq4ukvHVq1cYY+v/Px8fH9P7gSY3GuCkzTlXQj+oSFEUVkZCcF10YjEmGLonMH4GxuPxdrudyWRqtVoul2u326lU6v3792QLdWdn54svvnCti0ahUDAM43Ip2263V1dXm81m7+pqNpurq6vtdhtjbBjG4eFhIBBoNpsY4263WygU0ul0p9PBGHc6nXQ6fXh42O12McbNZjMQCCCEYI/O5BCjKArYcqrV6rfffmsYRiaT2d/fJ7v80Wj0+fPn9EZCNpvt9Xr0lJ5wxjCM58+fh8Phjx8/mo6MRKNRelFq6oLr6+tWy6eiKE58cUxF3f3t/Pz8hw8fiAFsKAGIV9ZQucaYePwMBCufLMvwCgcPbPI6h/33jY2NUqk0RjVYKer4+JieWxKxyXEbcDenN12Wl5cXFhaIgx5kCQQCVgYihDwez8rVRZcAWYrFYt8sRIYRAoVCwXaa//+HZ2dndB8gdV06+toMyyTZwECr1RqhnGAwaHorffvttwPrGm+CW2HgQBGJ69nAlPcsQTweH8GRtVgsml7wW1tb1lmoDVaCIHQ6HdPwa5Pe4SPY5a/X633ZhRDy+Xzr6+unp6fE3msqWVVVYjo2PbK/lWWZbCnLsnx2djY1NRUOh2lJ4O0Pu76mgzUg29///vc3b96QchBCZBVgX/sYn06AgX6//+Liwu/3x2KxMWrCSlG6ro9AHkmSvv76a9ARTpYMpS/xOhoql5PEsGbO5/P2ifP5fF+fuNEYWCwWQ6HQP//5T0AymUy22+1IJLK2tkYMyJFIpFwuy7L8ww8/RKNR08EahNAXX3zxyy+/fPfdd/S28O+CgQsLCx8+fADXM/tmu5dPhz0rBMcpXr16RRbSsO/qHJwnT57QzjHOMzpMWa1WB+71g7uPdRAegYF/+tOfDMNYWVl5/vw5YFIsFsGDLxqNAoWCwSBxTI/H47quWw/WXHr8tVotk0i/CwaaXM8cNvN9SiYIwlCmYI/HQ0+uhoWir/PdsIXYpJckqdPpGIZB3hF9E/d9cYzAQIRQLpfrXF1QEVkEkun67u4uGQzz+TyETQdrrIvA38sstG/z8EimEQB3vBHs2yYGDvRTRwi12234kEKj0YDVHXFjMAxDFMV0Op3P58k22Pn5eTAYtB6sSSaT+XxeEIR0Ok3A/72MgURhHrg3COTzeZO3kBPVaAY69FMvl8uJROKbb74BB1qy9hMEoV6vw3RdkqRqtQonCeHkt/VgzZdffvnTTz8VCgV66OYMdNJqPI0bEQACYIzJTqYTKQkDBUFw7qfu8/nItFy4uqAu03SdNnLCVo1JJOv8nDPQBBG/ZQmBYDDY6/U6nY5zoWkGjtFP3bkAppScgSZA+C1jCLx8+XKofX/CQNDToZ/67bn1cwYy1uG4uDQCiqIMu+1hYiDtJUuHTX7qt+fWzxlINygPs4TAzMzMCJ7cNgy8zk/9Vt36OQNZ6nNcVoKAJEmnp6e0UZE8IgEn+4ED/dRv262fM5C0Fw8wg4AgCCcnJwNNoKVSyeo8bRoDQWd7P/VbdevnDGSm23FBCQKmg4Ukng6sra1ZTycjhPoykM5oDd+qWz9noBVwHuNqBAZ+NDkUCum6fvmRLthANykzLANv262fM9DUQPzW1QiAM9r/TwH+NgTnlcn3nKxT0BHGwNt26+cMdHWH48KZEJiamrJ+hbVvjMk9hZTj9XqJdwuJtA8M5dRuX5T1qdVLxppmvDETOB84XgV4aRwBphHgDGS6+bjwzCPAGch8E3IFmEaAM5Dp5uPCM48AZyDzTcgVYBoBzkCmm48LzzwCnIHMNyFXgGkEOAOZbj4uPPMIcAYy34RcAaYR4Axkuvm48MwjwBnIfBNyBZhGgDOQ6ebjwjOPAGcg803IFWAaAc5AppuPC888ApyBzDchV4BpBDgDmW4+LjzzCHAGMt+EXAGmEeAMZLr5uPDMI8AZyHwTcgWYRoAzkOnm48Izj8D/AB2o+Z86V7LBAAAAAElFTkSuQmCC;" parent="pGM0qcHHVE-5nnajG1aP-139" vertex="1">
          <mxGeometry x="410" y="587.1700000000001" width="299" height="132" as="geometry" />
        </mxCell>
        <mxCell id="pGM0qcHHVE-5nnajG1aP-212" value="" style="endArrow=classic;html=1;rounded=0;exitX=1;exitY=0.5;exitDx=0;exitDy=0;entryX=0;entryY=0.25;entryDx=0;entryDy=0;" parent="pGM0qcHHVE-5nnajG1aP-139" source="pGM0qcHHVE-5nnajG1aP-176" target="pGM0qcHHVE-5nnajG1aP-211" edge="1">
          <mxGeometry width="50" height="50" relative="1" as="geometry">
            <mxPoint x="450" y="660" as="sourcePoint" />
            <mxPoint x="500" y="610" as="targetPoint" />
          </mxGeometry>
        </mxCell>
        <mxCell id="pGM0qcHHVE-5nnajG1aP-27" value="Linear Transformation" style="curved=1;startArrow=none;endArrow=block;exitX=0.5;exitY=1;entryX=0.5;entryY=0;rounded=0;spacing=1;fontSize=10;entryDx=0;entryDy=0;labelBackgroundColor=none;fontColor=default;" parent="pGM0qcHHVE-5nnajG1aP-94" source="pGM0qcHHVE-5nnajG1aP-13" target="pGM0qcHHVE-5nnajG1aP-119" edge="1">
          <mxGeometry relative="1" as="geometry">
            <Array as="points" />
            <mxPoint x="279.04545454545473" y="358.77483443708616" as="targetPoint" />
          </mxGeometry>
        </mxCell>
        <mxCell id="pGM0qcHHVE-5nnajG1aP-143" value="&lt;blockquote style=&quot;margin: 0 0 0 40px; border: none; padding: 0px;&quot;&gt;&lt;font face=&quot;Helvetica&quot;&gt;mean Shap&lt;/font&gt;&lt;div&gt;&lt;font face=&quot;Helvetica&quot;&gt;Mean Abs(Shap)&lt;/font&gt;&lt;/div&gt;&lt;div&gt;&lt;font face=&quot;Helvetica&quot;&gt;Shap Stdev&lt;/font&gt;&lt;/div&gt;&lt;div&gt;&lt;font face=&quot;Helvetica&quot;&gt;Mean Shap/Stdev&lt;/font&gt;&lt;/div&gt;&lt;div&gt;&lt;font face=&quot;Helvetica&quot;&gt;Mean abs(Shap/Stdev)&lt;/font&gt;&lt;/div&gt;&lt;div&gt;&lt;font face=&quot;Helvetica&quot;&gt;Feature importance rank&lt;/font&gt;&lt;/div&gt;&lt;/blockquote&gt;" style="whiteSpace=wrap;aspect=fixed;align=left;html=1;spacing=0;labelBackgroundColor=none;fontSize=10;" parent="pGM0qcHHVE-5nnajG1aP-94" vertex="1">
          <mxGeometry x="338.54999999999995" y="540" width="160" height="160" as="geometry" />
        </mxCell>
        <mxCell id="pGM0qcHHVE-5nnajG1aP-149" style="edgeStyle=orthogonalEdgeStyle;rounded=0;orthogonalLoop=1;jettySize=auto;html=1;entryX=0.403;entryY=1;entryDx=0;entryDy=0;entryPerimeter=0;labelBackgroundColor=none;fontColor=default;fontSize=10;" parent="pGM0qcHHVE-5nnajG1aP-94" source="pGM0qcHHVE-5nnajG1aP-147" target="pGM0qcHHVE-5nnajG1aP-143" edge="1">
          <mxGeometry relative="1" as="geometry" />
        </mxCell>
        <mxCell id="pGM0qcHHVE-5nnajG1aP-210" value="" style="shape=image;verticalLabelPosition=bottom;labelBackgroundColor=default;verticalAlign=top;aspect=fixed;imageAspect=0;image=data:image/png,iVBORw0KGgoAAAANSUhEUgAAAU8AAAA5CAIAAAA5oz7NAAAMxElEQVR4Ae1c32sayxe//8r8F/MqlIL4IvuksNB4LxeTB28Qi5QKJQ9muQFTNkbxRkyLoZsu9dZUEhqD+SFl48WlNF+TXm8lsckiSIT9I77igWFYU7Nu1JjuzEMYZ8/MnvOZ8zkzOz/yC2KJIcAQsAcCv9jDTGYlQ4AhgBjbmRMwBOyCAGO7XXqa2ckQYGxnPsAQsAsCjO126WlmJ0OAsZ35AEPALggwttulp5mdDAHGduYDDAG7IMDYbpeeZnYyBBjbmQ8wBOyCAGO7XXqa2ckQYGxnPsAQsAsCjO126WlmJ0OAsZ35AEPALggwttulp5mdDAHGduYDDAG7IMDYbpeeZnYyBBjbmQ8wBOyCwP2wfXFx8enTp5YxdjgcPM/fpQXLr3Y6nTzPz8/PW26BVTQgwN8hOZ1OQ2vWfnq93kQigTG2Vh0h5PF4QqGQy+Wy3MIEKt4D22VZLpVKFxcXYF4gEPj+/ftQps7MzBwfH+fz+aFqjUR4fn7+9PQ0Ho+PpLXJNzKF0arT6ei9VKvVjn6QVFW97CVN00AY/p6dnd0dQ5fLVavVPn/+/Ndff0Fr5XI5k8kM1fLS0pKu63eJF0O9zprwPbC90WgEg0G32w0aY4yfPHkyrPaqqkaj0WFrjUT+6uqK5/mRNDX5RiBapdNpC69OJpMWat1aRRRFoG69XjfJllAoVCwWIUzc3Q1EUSyXyx6Ph7z9yZMnJH+r/iAQiURqtZpJ4fsSmyjbYQau6zrP8w6HAyGEMeZ5HpAleRh/QABwgRIao06nM2x/0NUt5/1+//n5OakOFpHIBXZBoWGS6eklUvEeM9aiVSAQaDQaY1K7XC4D4cvlsvlXeL3ek5OTarVqvkq/pMfj2e4lj8cDT929ZMjzPE8E4BHP83QXy7J8L5PNfosGlEyU7TMzMx8+fGg0GolEguO4LtuLxeL29rYsywihzc3NTCZzenqaTqeXlpZOTk5A73Q6XSgUZmdnW62WKIoIoXuMo+l0ulQqgWKCIFQqFZ7nd3d3Y7HY6upqPB6/uLjY3NwEbQnuh4eHgiCsra1dX18/evSIlE8mQ3sqz/Pn5+dutzsSidDh8saw5Xa7wcU9Hs+bN2/29/cNHj8q/THGzWYTCA9dbLJljHG9Xvf5fCbl+8WWlpbOz8/fv3+/sLCAEIrFYi9fvux0Ogghl8slSVKj0djb25udnf3y5QvIcBynqmooFMrn8yQC3uNks9+oH5VMlO0IIZotPM8HAoFqtSoIAkJoeXk5l8vt7OwghILBYL1eRwgFAoGrqyvwSzIo3WMcLZfL8NEeCARarRYoJoqioijLy8uiKKqqCnMW8Jgu7tls9uDgAGwhzvGj/hh5ealUCoVCHz58gBlvOp3WNE0QhHg8/qOwlUql4vG4pmnJZPLbt29+v39lZeXff//d3t4Gdx+5ktDjMDPvdDowEph8SyAQWFlZMSl8oxjxK4RQNBoNh8OwHLCwsMBx3PX1NehTqVRisRhCSFGU9fV1gzOPdbI5Nzd3o+bDFk6a7aVSif5o5Hn+6uqKKK2qaiQSQQhJklQoFBBC+XwenBIGJZC8xzhKPIMohhDa2dkBJXd2dsA6QRDIDLNer8N4lU6nIZYRe8edefz4cbvdXlxcfPnyJbhsqVQCT43FYoqiQAwyhK1kMgnxy+Vy5XI5UPLq6mrcC86yLA/7AX93AA0eiBCiXTQSiZDw3Wq1XC4Xxhg+RUESQv+YJpsej2dxcVFRFF3X724pQhP/f/K1Wi0YDBLVgdWZTObRo0cY4+vraxgtz87OwuHwxsZGqVQCh1tfXy+VSmtrawihdrvNcRzkSVMTyEDECYfDkUhkZ2cHFOsuN1xcXAQCAYRQo9GAzMHBQSqV2tjYQAjV63UoVFXVzDQ1Fov9+eefozKnUCi0egkaJNGK+PTgsAW1xvrRTltaqVSA8CTK0E/HkY9Go5VKhbSMMW61WhzHvX79GiGU6yWEEITvaDS6uroK3MMYA5hdP8xms/l8HrqbNHX3TKFQyGQye3t7D5Xt19fXNAqFQuHjx4+vXr2Cr3GIowihZrP59u3bYC91B8lsNvvp06fj4+NsNosQuri4KBaL4x5qaD0hz/N8d924WCwihODjLZFIfPr06cWLF/CZR+Yp1Wr1/fv3MPETRfHw8HB3d1fXdTM6i73U/3YLJZqmhUIhCEOwCEo0bLfbLpdrY2NjcNiCl8KsBGM8coc2GMVxXKvVAsLffbHd0PiNP+VeIo9cLlez2dza2oKpEJlsplKp4+NjWGBSFAVIWK/X37175/P5Xr16tb+/v7m5SdoZYSaXy00X2589e5bJZMgqutfrhS8Nr9cL80aEkNvtfvr0KeEzgYNe2CQtYIz780SSfkrauXtmcXExmUyStau5uTmv14sQmpubIxvsDoeDCMCZCvq9RGeEENEWMuaHR5NsN4N5pVJJJBJv376FKEm+1WFxC3x6cNgC61ZXV4+Pj/f29ob6oqaRMZ+PRqPAdhhjzVekJR0ORyaTefbsGSkkq5LJZPL333+HtRW3212pVODjkUjSXXxjh/Z3Ll1C2hlVZrrYns1m19fXP378CN+BXcur1SpspRweHuq6DvPY7nK0oigw3I0KiBvbufVoFk1X0kKxWBQEQVVVModsNpsQy79+/Wo5uMqyXC6XMcaKopiZxiOEzLDdJOYQj4i9uJfAZNqnB4ctkCe7jASx8WXAv3Vdp+fY5l+HMf78+fMff/xBfC8cDuu67vf7f/31V13XwVFlWa5Wq2Trx3z7w0rC/vEAtxyM7RSxHWMMXXJ2dgYrVRjj7nI0DCYcx7XbbWD7wsICHWuHhcy8fOK21D9A+Xy+3d1djHG73QbNA4GAruswmQwGg5bZ7nA4QB3zJ4huZbt5zM2DNlWSMPWAER4C7lDqSZL04sULQRDIcloul+v2LDSSz+eB7RzHJRIJevQe6i3mhefn5we75OCdjuliu9Pp9Pl8uq7DRlokEiExFSE0/QeMEEKOXgL/gM3bdDpN76mM1YrXr18fUel/vUQVHCUSCdq3MMY/Aea0Rf15juPIhpzf7+8XGFACQ+XBwQE5V6uqKpl4dmdY2d7qz4AWpurRFLEdcJEkicROWZbJUhDGmGzqThWCNypzcHBAWF0ul8kSg8/nI9P7GyuOtvDWsR1e93NgPgA6OFFLWDpAsv8RPU3rrrx0Oh2y7ytJEkw2+2tNZ8nUsV1RFPKJRecFQUilUgTEer1uWBEhj0aY+fbt2+XABMvU/W9sNBrk8COdlyQpHA4T+XFbYZLtNM503oC5hQsexNL7zYiiaP7kvEFV+BCDvV46D2djiLCFG1mkrvnM2traQH+8PDo6GtDaVLO90WiQeAwLVMSS3377jeSnMEMY7nK52u022U43HN4etxUW2D4AcwsXPMx0zdbWFlnXMCM/rIwgCJqm9a+wmGyHZjjMEWA87w429DTe2o0skzqMSmzq2B4MBoEeqqr+/fff7XZbkqR//vmHPkjj8XjIptSogBhtO6IoapomSVKtVisUCpqmZTKZL1++0D43AStMst0M5vQFj9FiJctyp9MZ0wdOMBjUNA32ySyrXS6Xv379KkmSqqqVSuXk5ESSJPq7ktzCsvyKcVfc29u7vLyE9QtN0y4vL4ddwjBoOMqTs4abbfRq5+bm5srKChx9N2gwVT9pD4CLImT7Cu7tTMAKk2wH3AZgTl/wGAfIfr9/HGznOE7TNHqcsKy80+kk13jIDR/SGn0jixT+3JlRsn0AUtFoNJVKweWQAWJT/mgyVszMzNCzCcuY0Bc8LDcyoOL6+vrIj7vB3pvJgwkDdLv1keFG1q3yP4fAhNgOW3ETWKIbd6/UarUHZAU5DD9yWDiOMyxn3P0VGOOTk5Nh5wvRaBTOtA+rQP99mGFbeHDyE2K7z+drNps+n295efnBYUQUflhWGC54ECtGkoETCiNpijSiKMqwVIdz9WZuH5C3kAx9I4sU/tyZCbE9HA6fnp5ubW3Rn8EPDtmHZYXhgseUo53L5chWjklVnz9/rmkauVlsshYRo29kkcKfOzMhto/12sAke2jKtxUMUBgOwxueTs/PeDxucmvd6XTOzs5KkvTff//pvUQf6BjWoofVm8Na1y8/Obb3v5uVMATgFhDw1sLfdrv9oGeLE3YAxvYJA85eZ0Rgf3//yGqytj5n1MA2vxnbbdPVzFDbI8DYbnsXYADYBgHGdtt0NTPU9ggwttveBRgAtkGAsd02Xc0MtT0CjO22dwEGgG0QYGy3TVczQ22PAGO77V2AAWAbBBjbbdPVzFDbI8DYbnsXYADYBgHGdtt0NTPU9ggwttveBRgAtkGAsd02Xc0MtT0C/wcNWrYGFGiAygAAAABJRU5ErkJggg==;" parent="pGM0qcHHVE-5nnajG1aP-94" vertex="1">
          <mxGeometry x="262.82" y="1090" width="335" height="57" as="geometry" />
        </mxCell>
      </root>
    </mxGraphModel>
  </diagram>
</mxfile>
